<?xml version="1.0" encoding="utf-8"?>
<!-- Generator: Adobe Illustrator 16.0.0, SVG Export Plug-In . SVG Version: 6.00 Build 0)  -->
<!DOCTYPE svg PUBLIC "-//W3C//DTD SVG 1.1//EN" "http://www.w3.org/Graphics/SVG/1.1/DTD/svg11.dtd">
<svg version="1.1" id="wave" xmlns="http://www.w3.org/2000/svg" xmlns:xlink="http://www.w3.org/1999/xlink" x="0px" y="0px"
	 width="1190.556px" height="108.396px" viewBox="0 21.396 1190.556 108.396" enable-background="new 0 21.396 1190.556 108.396"
	 xml:space="preserve">
<linearGradient id="SVGID_1_" gradientUnits="userSpaceOnUse" x1="0.9607" y1="837.1016" x2="0.9607" y2="837.1016" gradientTransform="matrix(2857.3455 0 0 -104.8495 -1196.186 87881.4766)">
	<stop  offset="0" style="stop-color:#000000"/>
	<stop  offset="1" style="stop-color:#000000"/>
</linearGradient>
<path fill="url(#SVGID_1_)" d="M1547.729,111.895"/>
<linearGradient id="SVGID_2_" gradientUnits="userSpaceOnUse" x1="0.8357" y1="836.9307" x2="1.2107" y2="836.9307" gradientTransform="matrix(2857.3455 0 0 -104.8495 -1196.186 87881.4766)">
	<stop  offset="0" style="stop-color:#000000"/>
	<stop  offset="1" style="stop-color:#000000"/>
</linearGradient>
<path fill="url(#SVGID_2_)" d="M2262.065,129.793c-39.686,0-79.371,0-119.056,0c-39.688,0-79.371,0-119.059,0
	c-39.685,0-79.368,0-119.056,0s-79.371,0-119.057,0c-39.687,0-79.37,0-119.058,0c-39.686,0-79.37,0-119.056,0
	c-39.688,0-79.371,0-119.057,0c-39.688,0-79.37,0-119.058,0c-39.686,0-79.371,0-119.056,0"/>
<path d="M1060.289,106.605c-41.866-1.074-77.5-1.942-116.251-17.94c-38.751-16.246-77.503-41.049-116.253-53.74
	C789.035,22.4,750.284,22.4,711.533,31.369c-38.751,8.806-77.5,26.995-96.876,35.8l-19.377,8.97v-0.055
	c-40.14,18.532-98.609,31.334-130.271,30.521c-41.866-1.074-77.5-1.942-116.251-17.94c-38.751-16.246-77.503-41.049-116.253-53.74
	C193.755,22.4,155.004,22.4,116.253,31.369c-38.751,8.806-77.5,26.995-96.876,35.8L0,76.139v53.739h595.28h595.28V76.084
	C1150.421,94.616,1091.951,107.418,1060.289,106.605z"/>
</svg>
